<svg version="1.1" id="Layer_1" xmlns="http://www.w3.org/2000/svg" xmlns:xlink="http://www.w3.org/1999/xlink" x="0px" y="0px"
	 width="100%" viewBox="0 0 50 50" enable-background="new 0 0 50 50" xml:space="preserve">
<path fill="#FAFAFA" opacity="1.000000" stroke="none" 
	d="
M28.000162,51.000000 
	C18.666779,51.000000 9.833448,51.000000 1.000090,51.000000 
	C1.000060,34.333382 1.000060,17.666761 1.000030,1.000108 
	C17.666611,1.000072 34.333221,1.000072 50.999874,1.000036 
	C50.999916,17.666603 50.999916,34.333206 50.999958,50.999905 
	C43.500072,51.000000 36.000145,51.000000 28.000162,51.000000 
M46.122795,8.797000 
	C46.071503,8.505775 46.020210,8.214550 46.251732,7.273858 
	C47.360291,5.818652 48.468849,4.363447 50.100365,2.221755 
	C37.546753,14.798208 25.752020,26.614403 14.270856,38.116455 
	C14.972478,37.689529 16.605318,37.165073 17.532169,36.052486 
	C22.050680,30.628487 27.319572,27.048677 34.742432,26.895748 
	C37.261547,26.843847 39.888996,25.550432 42.223053,24.350103 
	C47.296848,21.740814 49.559242,17.272703 49.523643,11.659495 
	C49.510132,9.528796 48.955288,7.745677 46.122795,8.797000 
M17.508398,49.022747 
	C21.166603,49.022747 24.824806,49.022747 28.483011,49.022747 
	C39.061131,49.022747 39.081017,49.022686 39.047325,38.247566 
	C39.038750,35.505535 38.860107,32.764034 38.759605,30.022289 
	C37.935635,30.007780 37.111668,29.993271 36.287697,29.978764 
	C36.047302,35.176682 35.806908,40.374603 35.570969,45.476078 
	C25.483189,45.476078 15.758916,45.476078 6.123291,45.476078 
	C6.123291,35.420559 6.123291,25.685072 6.123291,15.999005 
	C13.923491,14.847472 21.753061,16.940847 30.263624,14.434701 
	C28.657690,13.142854 28.286476,12.583056 27.905424,12.576280 
	C20.269482,12.440459 12.628475,12.234794 5.000736,12.459296 
	C4.088822,12.486135 2.587990,14.878242 2.494280,16.251415 
	C2.178013,20.885790 2.372839,25.555058 2.372662,30.210983 
	C2.372430,36.315437 2.372605,42.419888 2.372605,49.022747 
	C7.608372,49.022747 12.061088,49.022747 17.508398,49.022747 
z"/>
<path fill="#232323" opacity="1.000000" stroke="none" 
	d="
M17.011101,49.022747 
	C12.061088,49.022747 7.608372,49.022747 2.372605,49.022747 
	C2.372605,42.419888 2.372430,36.315437 2.372662,30.210983 
	C2.372839,25.555058 2.178013,20.885790 2.494280,16.251415 
	C2.587990,14.878242 4.088822,12.486135 5.000736,12.459296 
	C12.628475,12.234794 20.269482,12.440459 27.905424,12.576280 
	C28.286476,12.583056 28.657690,13.142854 30.263624,14.434701 
	C21.753061,16.940847 13.923491,14.847472 6.123291,15.999005 
	C6.123291,25.685072 6.123291,35.420559 6.123291,45.476078 
	C15.758916,45.476078 25.483189,45.476078 35.570969,45.476078 
	C35.806908,40.374603 36.047302,35.176682 36.287697,29.978764 
	C37.111668,29.993271 37.935635,30.007780 38.759605,30.022289 
	C38.860107,32.764034 39.038750,35.505535 39.047325,38.247566 
	C39.081017,49.022686 39.061131,49.022747 28.483011,49.022747 
	C24.824806,49.022747 21.166603,49.022747 17.011101,49.022747 
z"/>
<path fill="#101010" opacity="1.000000" stroke="none" 
	d="
M46.289570,9.668304 
	C48.955288,7.745677 49.510132,9.528796 49.523643,11.659495 
	C49.559242,17.272703 47.296848,21.740814 42.223053,24.350103 
	C39.888996,25.550432 37.261547,26.843847 34.742432,26.895748 
	C27.319572,27.048677 22.050680,30.628487 17.532169,36.052486 
	C16.605318,37.165073 14.972478,37.689529 14.270856,38.116455 
	C25.752020,26.614403 37.546753,14.798208 50.100365,2.221755 
	C48.468849,4.363447 47.360291,5.818652 45.795731,7.719831 
	C40.053352,13.300633 34.766979,18.435461 28.601736,24.423964 
	C42.770847,22.940187 46.181648,19.849049 46.289570,9.668304 
z"/>
<path fill="#F2F2F2" opacity="1.000000" stroke="none" 
	d="
M46.206184,9.232653 
	C46.181648,19.849049 42.770847,22.940187 28.601736,24.423964 
	C34.766979,18.435461 40.053352,13.300633 45.654320,8.044565 
	C46.020210,8.214550 46.071503,8.505775 46.206184,9.232653 
z"/>
</svg>